<svg version="1.1" xmlns="http://www.w3.org/2000/svg" xmlns:xlink="http://www.w3.org/1999/xlink" x="0px" y="0px"
	 width="516.32px" height="516.32px" viewBox="0 0 516.32 516.32"
	 class="w-12 h-12 fill-black"
	 style="overflow:visible;enable-background:new 0 0 516.32 516.32;" xml:space="preserve">
<defs>
</defs>
<path d="M292.32,267.68c-0.56-2.8-1.12-19.04-0.56-28.56c0-3.36,1.68-37.52,5.6-49.84c1.12-3.36,2.24-6.16,3.36-8.96
	c11.2-31.92,49.28-36.4,78.96-34.16c2.8,0,5.6,0.56,8.4,0.56c7.84,0.56,16.24,2.24,24.08,4.48c2.8,0.56,5.6,1.68,8.4,2.24
	c7.84,2.8,15.68,6.72,22.96,11.76c2.8,2.8,2.8,9.52-1.12,8.4c-6.72-1.12-12.88-2.8-19.6-4.48c-3.36-0.56-6.72-1.68-9.52-2.24
	c-7.28-2.24-14.56-3.92-22.4-4.48c-2.8,0-5.04-0.56-7.84-0.56c-26.88-3.36-53.76,11.2-65.52,36.96c-1.68,2.8-2.8,6.16-3.92,8.96
	c-3.92,9.52-6.16,19.04-7.84,28.56c-0.56,2.8-1.12,5.6-1.12,7.84c-1.12,7.84-1.68,16.24-2.24,24.64c0,2.8-2.8,3.92-5.04,3.92
	C294,272.72,292.32,270.48,292.32,267.68L292.32,267.68z"/>
<path d="M100.8,186.48c13.44-8.4,28-15.68,43.68-19.6c3.36-0.56,16.24-3.36,19.6-3.92c24.08-1.68,47.6,5.04,67.76,18.48
	c5.04-28-42-39.76-64.96-39.76c-5.04,0-12.88,0-27.44,4.48c-18.48,6.16-35.28,15.68-44.24,35.28c-0.56,2.24-1.12,4.48-1.12,6.72
	c-1.12,0,2.8,0,3.92-0.56C99.68,187.04,100.24,187.04,100.8,186.48L100.8,186.48z"/>
<path d="M212.8,208.88c-30.24,19.6-65.52,17.36-92.4,0.56c-2.8,0-3.92,2.8-3.92,5.6c5.6,13.44,16.8,19.04,30.8,23.52
	c6.72,2.24,25.76,4.48,41.44-1.68c6.16-2.24,11.2-5.6,19.04-12.32c5.04-5.04,6.72-6.72,8.4-11.2
	C216.16,209.44,214.48,209.44,212.8,208.88L212.8,208.88z"/>
<path d="M435.12,206.64C408.8,224.56,378,232.96,341.6,210c0-1.12-3.92,2.8-2.8,5.6c10.64,19.04,31.36,26.88,51.52,27.44
	c16.8,0,32.48-6.72,42-19.04c3.92-5.04,7.28-9.52,4.48-16.24C436.24,207.76,435.68,207.2,435.12,206.64L435.12,206.64z"/>
<path d="M258.16,0C115.92,0,0,115.92,0,258.16s115.92,258.16,258.16,258.16S516.32,400.4,516.32,258.16S400.4,0,258.16,0L258.16,0z
	 M276.64,495.04c-120.96,0-220.08-106.4-220.08-236.88S155.68,21.28,276.64,21.28c120.96,0,220.08,106.4,220.08,236.88
	S398.16,495.04,276.64,495.04L276.64,495.04z"/>
<path d="M302.96,318.64c2.8,8.96,2.8,18.48-3.36,22.96c-1.12,1.12-2.8,2.8-4.48,3.36c-5.6,3.92-11.76,6.16-19.04,6.72
	c-1.68,0-3.36,0.56-5.04,0.56c-5.04,0.56-10.64-0.56-16.24-2.8c-1.68-0.56-3.36-1.68-5.04-2.8c-6.72-5.04-22.96-20.16-12.32-24.08
	c5.6-2.8,15.12,10.64,26.32,11.2c1.68,0,21.84,3.92,36.4-20.72c1.12,1.12,1.12,2.8,2.8,3.92L302.96,318.64z"/>
<path d="M208.32,383.04c1.68,0.56,3.36,1.68,5.6,2.24c1.12,0,2.24,0.56,3.36,0.56c17.36-7.84,35.28-11.76,53.76-5.04h5.04h5.04
	c6.72-1.12,10.64-6.72,17.92-7.28c2.24,0,10.08,0,16.24,5.04c2.24,1.12,3.92,2.24,6.16,3.36c8.96,7.28,18.48,2.24,29.12,3.36
	c-2.8,12.32-17.92,17.92-28.56,13.44c-1.12-0.56-1.68-0.56-2.8-1.12c-1.12-0.56-1.68-0.56-2.8-1.12c-1.12-0.56-1.68-0.56-2.8-1.12
	c-0.56-0.56-1.68-0.56-2.24-1.12c-0.56,0-1.68-0.56-2.24-1.12c-0.56-0.56-1.68-0.56-2.8-1.12c-2.24-1.12-4.48-1.68-6.72-1.68
	s-3.92,1.12-5.6,2.24c-1.68,1.12-3.36,2.24-5.6,3.92c-1.68,1.12-3.36,2.8-5.04,3.92s-3.92,1.68-6.16,2.8
	c-2.8,1.12-6.16,1.12-9.52,1.12c-1.68,0-3.36-0.56-5.04-0.56c-1.68-0.56-3.36-1.12-5.04-1.68c-8.96-9.52-20.16-2.8-30.8,0
	c-1.12,0-2.8,0.56-3.92,0.56s-2.8,0-3.92,0.56h-2.8c-11.2-0.56-17.92-8.96-19.6-18.48c0-1.12,5.6-1.12,8.4-1.12
	C207.2,383.04,208.32,383.04,208.32,383.04L208.32,383.04z"/>
<path d="M249.76,417.2c2.8,2.8,30.8,11.76,40.88,3.36c1.12-1.12,2.24-1.68,3.36-2.8c3.36-2.8,7.28-4.48,11.76-3.36
	c2.8,1.12,2.8,3.92,1.12,5.6c-1.12,1.12-2.24,2.24-2.8,3.92c-1.12,1.12-2.24,2.8-2.8,3.92c-10.08,12.88-38.64,15.68-50.96,3.36
	c-1.12-1.12-2.24-2.24-2.8-3.36c-1.12-1.12-1.68-2.24-2.8-3.36c-2.8-2.8-1.12-5.6,1.12-7.84
	C246.96,416.08,248.64,416.08,249.76,417.2L249.76,417.2z"/>
</svg>
