<svg version="1.1" xmlns="http://www.w3.org/2000/svg" xmlns:xlink="http://www.w3.org/1999/xlink" x="0px" y="0px"
	 width="528.64px" height="528.64px" viewBox="0 0 528.64 528.64"
	 class="w-12 h-12 fill-white"
	 style="overflow:visible;enable-background:new 0 0 528.64 528.64;" xml:space="preserve">
<path d="M299.04,273.84c-0.56-2.8-1.12-19.6-0.56-29.12c0-3.36,1.68-38.64,6.16-50.96c1.12-3.36,2.24-6.16,3.92-9.52
	c11.76-33.04,50.4-36.96,80.64-35.28c2.8,0,5.6,0.56,8.4,0.56c8.4,0.56,16.24,2.24,24.64,5.04c2.8,0.56,5.6,1.68,8.4,2.8
	c8.4,2.8,16.24,6.72,23.52,12.32c2.8,2.8,2.8,9.52-1.12,8.4c-6.72-1.12-13.44-2.8-19.6-4.48c-3.36-0.56-6.72-1.68-10.08-2.24
	c-7.28-2.24-15.12-3.92-22.96-4.48c-2.8,0-5.04-0.56-7.84-0.56c-27.44-3.92-55.44,11.76-67.2,37.52c-1.68,2.8-2.8,6.16-4.48,9.52
	c-3.92,9.52-6.16,19.6-7.84,29.12c-0.56,2.8-1.12,5.6-1.12,8.4c-1.12,8.4-1.68,16.8-2.24,25.2c0,2.8-2.8,3.92-5.04,3.92
	C301.28,278.88,299.6,276.64,299.04,273.84L299.04,273.84z M103.6,190.96c14-8.96,29.12-16.24,44.8-20.16
	c3.36-0.56,16.8-3.36,20.16-3.92c24.64-1.68,48.72,5.04,69.44,19.04c5.04-28.56-43.12-40.88-66.64-40.32c-5.04,0-13.44,0-28,4.48
	c-18.48,6.16-35.84,16.24-45.36,35.84c-0.56,2.24-1.12,4.48-1.12,6.72c-1.12,0,2.8,0,3.92-1.12
	C101.92,191.52,102.48,190.96,103.6,190.96L103.6,190.96z M445.2,217.28c-0.56,0.56-1.12,1.12-1.68,1.68
	c-7.28,1.68-13.44,11.2-20.16,15.68c-16.8,11.2-36.4,1.68-36.96,1.12c-7.84-6.16-14.56-17.92-8.4-25.2
	c-8.4,1.12-16.8,5.04-22.96,10.08c-2.24,1.68-5.6,2.24-7.84,0c-3.92-2.8,0-8.4,0-8.4c3.36-5.6,13.44-11.2,15.68-12.32
	c14-6.72,22.4-7.84,25.76-8.4c9.52-1.68,48.16,0.56,56,18.48l0.56,1.12C446.88,213.36,446.88,215.6,445.2,217.28L445.2,217.28z
	 M427.28,212.24c0-0.56-12.32-5.04-18.48-5.6c-3.36,0-16.8-0.56-16.8,2.24c-1.12,5.6,5.04,11.76,15.68,12.88
	C418.88,222.88,427.28,215.04,427.28,212.24L427.28,212.24z M225.68,217.84c-0.56,3.36-1.68,3.36-3.36,4.48
	c-1.68,0.56-2.8,0.56-4.48,1.12c-1.12,0.56-8.4,3.92-9.52,5.04c-2.8,2.8-4.48,5.04-7.84,7.84c-0.56,0.56-1.12,1.12-1.68,1.12
	c-10.08,7.28-26.88,7.28-38.64,0c-0.56-0.56-1.12-0.56-1.12-1.12c0-0.56-0.56-1.12-1.12-1.12c-3.36-3.92-4.48-7.28-4.48-13.44
	c0-1.68,0.56-3.92,1.12-5.6c0.56-1.12,1.12-2.8,0-2.24c-3.36,1.12-4.48,1.12-6.72,2.24c-8.4,2.8-23.52,8.96-28,3.92
	c-3.92-5.04,2.8-8.96,4.48-10.64c8.4-7.28,25.2-14,42-15.68c2.8,0,5.04-0.56,7.28-0.56c2.8,0,5.6,0.56,8.4,0.56
	c10.64,1.68,24.64,5.6,33.6,12.32c2.8,2.24,5.04,4.48,7.28,7.84C224.56,214.48,225.68,216.16,225.68,217.84L225.68,217.84z
	 M170.8,211.12c-1.12,2.8,5.6,11.2,9.52,12.32c1.68,0.56,6.72,1.68,11.76,0.56c6.16-1.12,15.12-6.72,14-8.4
	C195.44,203.84,172.48,208.32,170.8,211.12L170.8,211.12z M310.24,325.92c-1.12-1.68-1.12-2.8-2.8-4.48
	c-15.12,24.64-35.28,21.28-36.96,21.28c-11.76,0-21.28-14-26.88-11.2c-11.2,3.92,5.6,19.6,12.32,24.64c1.68,1.12,3.36,1.68,5.04,2.8
	c5.6,2.24,11.2,3.36,16.8,2.8c1.68,0,3.36,0,5.6-0.56c7.28-0.56,14-3.36,19.04-7.28c1.68-1.12,2.8-2.24,4.48-3.92
	c6.16-5.04,6.16-14.56,3.36-23.52L310.24,325.92L310.24,325.92z M211.12,391.44c-2.8,0-8.4,0-8.4,1.12
	c1.12,9.52,8.4,17.92,19.6,19.04h2.8c1.12,0,2.8,0,3.92-0.56c1.12,0,2.8-0.56,3.92-0.56c11.2-2.8,22.4-9.52,31.92,0
	c1.68,0.56,3.36,1.12,5.04,1.68s3.36,0.56,5.04,0.56c3.36,0,6.72,0,9.52-1.12c2.24-0.56,3.92-1.68,6.16-2.8
	c1.68-1.12,3.36-2.24,5.04-3.92c1.68-1.68,3.36-2.8,5.6-3.92c1.68-1.12,3.92-1.68,6.16-2.24c2.24,0,4.48,0,6.72,1.68
	c1.12,0.56,1.68,0.56,2.8,1.12c1.12,0.56,1.68,0.56,2.8,1.12c0.56,0.56,1.68,0.56,2.24,1.12c1.12,0.56,1.68,1.12,2.8,1.12
	c1.12,0.56,1.68,0.56,2.8,1.12c1.12,0.56,1.68,0.56,2.8,1.12c11.2,4.48,26.32-1.12,29.12-13.44c-11.2-1.12-20.72,3.92-30.24-3.36
	c-2.24-1.68-4.48-2.8-6.16-3.36c-6.72-5.04-14-5.04-16.8-5.04c-6.72,0.56-11.2,6.16-17.92,7.84h-5.04h-5.04
	c-19.04-6.72-36.96-2.8-54.88,5.04c-1.12,0-2.24-0.56-3.36-0.56c-2.24-0.56-3.92-1.12-5.6-2.24
	C213.36,392.56,212.24,392,211.12,391.44L211.12,391.44z M251.44,426.72c-2.24,2.24-3.92,5.04-1.12,7.84
	c1.12,1.12,1.68,2.24,2.8,3.36c1.12,1.12,2.24,2.24,3.36,3.36c12.32,12.32,41.44,9.52,52.08-3.36c1.12-1.12,2.24-2.8,2.8-3.92
	c1.12-1.12,2.24-2.8,3.36-3.92s1.12-3.92-1.12-5.6c-5.04-1.12-8.96,0.56-12.32,3.36c-1.12,1.12-2.24,1.68-3.36,2.8
	c-10.08,8.96-38.64-0.56-41.44-3.36C254.24,426.16,252.56,426.16,251.44,426.72L251.44,426.72z M528.64,264.32
	c0,145.6-118.72,264.32-264.32,264.32S0,409.92,0,264.32S118.72,0,264.32,0S528.64,118.72,528.64,264.32L528.64,264.32z
	 M169.68,30.24l16.8,2.24c14-4.48,22.4-9.52,36.4-12.88c0,0-15.68-2.8-18.48-2.8C199.92,17.36,181.44,24.08,169.68,30.24
	L169.68,30.24z M119.28,60.48h19.6c8.4-5.6,17.36-11.2,26.32-15.68h-20.72C136.08,49.28,127.68,54.32,119.28,60.48L119.28,60.48z
	 M82.88,91.84h19.04c5.6-5.6,11.2-10.64,16.8-15.68H99.69C93.52,81.2,87.92,86.24,82.88,91.84z M57.12,123.76H75.6
	c3.92-5.6,7.84-10.64,11.76-15.68H68.33C64.96,113.12,61.04,118.16,57.12,123.76L57.12,123.76z M38.64,155.68h18.48
	c2.8-5.6,5.6-10.64,8.4-15.68H47.04C44.24,145.04,41.44,150.08,38.64,155.68z M25.76,187.6h18.48c1.68-5.6,3.92-10.64,5.6-15.68
	H31.92C29.68,176.96,28,182,25.76,187.6L25.76,187.6z M17.92,219.52h17.92c1.12-5.6,2.24-10.64,3.36-15.68H21.28
	C20.16,208.32,19.04,213.92,17.92,219.52z M14,250.88h17.92c0.56-5.6,1.12-10.64,1.68-15.68H15.68
	C15.12,240.24,14.56,245.84,14,250.88z M14.56,282.8h17.36c0-5.04-0.56-9.52-0.56-14.56v-1.12H14C14,272.16,14,277.76,14.56,282.8
	L14.56,282.8z M19.04,314.72h16.24c-1.12-5.04-1.68-10.64-2.24-15.68h-16.8C16.8,304.08,17.92,309.68,19.04,314.72L19.04,314.72z
	 M28,346.64h15.68C42,341.6,40.32,336,39.2,330.96H22.96C24.08,336,25.76,341.04,28,346.64L28,346.64z M41.44,378.56H56
	c-2.24-5.04-5.04-10.64-6.72-15.68H34.16C36.4,367.92,38.64,372.96,41.44,378.56L41.44,378.56z M61.04,409.92h12.88
	c-3.36-5.04-6.72-10.64-9.52-15.68h-14C53.76,399.84,57.12,404.88,61.04,409.92L61.04,409.92z M99.12,441.84
	c-4.48-5.04-9.52-10.64-13.44-15.68H73.37c4.48,5.6,9.52,10.64,14.56,15.68H99.12z M134.96,473.76
	c-6.72-5.04-13.44-10.08-19.6-15.68h-10.08c6.72,5.6,14,11.2,21.84,15.68H134.96z M190.96,503.44c-10.64-3.92-20.72-8.96-30.8-14
	h-5.04C166.32,495.04,178.64,500.08,190.96,503.44L190.96,503.44z M509.04,264.32c0-133.84-101.36-242.48-225.68-242.48
	S57.68,130.48,57.68,264.32S159.04,506.8,283.36,506.8S509.04,398.16,509.04,264.32z"/>
</svg>
