<svg version="1.1" xmlns="http://www.w3.org/2000/svg" xmlns:xlink="http://www.w3.org/1999/xlink" x="0px" y="0px"
	 width="519.46px" height="519.46px" viewBox="0 0 519.46 519.46"
	 style="overflow:visible;enable-background:new 0 0 519.46 519.46;" xml:space="preserve">
<defs>
</defs>
<path d="M519.01,358.85c-0.56-2.24-2.8-3.92-5.04-3.36c-5.04,1.12-11.2-0.56-18.48-4.48c-1.68-1.12-2.8-2.24-4.48-3.92
	c-3.92-5.04-5.04-10.08-6.16-12.32c-8.96-29.12-33.04-36.96-33.04-36.96c-7.28-2.8-15.68-3.36-22.4-3.92h-5.6h-5.6
	c-7.28-0.56-16.8-1.68-25.2-7.28c16.24-3.36,47.04-7.84,67.2-11.76c21.28-3.92,39.2-7.28,46.48-8.96c2.24-0.56,3.92-2.8,3.36-5.04
	c-0.56-2.24-2.24-3.92-4.48-3.92h-1.68c-8.4-1.68-24.64-5.04-43.68-8.4c-17.92-3.36-44.8-6.72-59.92-10.08
	c10.08-5.04,18.48-11.76,24.08-20.16c1.68-2.8,3.92-5.6,6.72-9.52c1.12-1.68,2.24-3.92,3.92-5.6c2.8-4.48,6.72-10.64,8.4-12.32
	c1.68-2.24,6.16-4.48,8.96-5.6c5.6-2.24,8.4-3.36,14.56-3.36c1.68,0,3.92,0.56,5.6,1.12c5.6,1.12,12.32,2.8,19.6,0
	c3.36-1.12,6.16-2.24,8.96-3.92c7.28-3.92,12.32-10.08,15.68-17.36c1.12-1.12,1.68-2.8,2.24-4.48c1.12-2.24,0-5.04-1.68-6.16
	c-2.24-1.12-4.48-0.56-6.16,1.12c-2.8,4.48-8.4,7.28-16.24,9.52c-1.68,0.56-3.92,0.56-6.16,0c-6.72-0.56-10.64-3.36-12.88-4.48
	c-26.88-14-49.28-2.8-49.28-2.8c-7.28,3.36-13.44,8.4-18.48,13.44c-1.12,1.12-2.8,2.24-3.92,3.92c-1.68,1.12-2.8,2.8-4.48,3.92
	c-5.6,5.04-15.68,11.76-26.88,14c9.52-14.56,23.52-36.4,36.96-56c11.2-16.8,20.72-31.36,25.2-38.64l1.12-1.12
	c1.68-1.68,1.68-4.48,0.56-6.16c-1.68-1.68-3.92-2.24-6.16-1.12c-6.16,3.92-21.28,14-38.64,25.2
	c-17.36,11.76-35.84,24.08-49.84,33.04c3.92-11.2,5.04-21.84,3.36-31.92c-0.56-3.36-1.12-6.72-2.24-11.2
	c-0.56-2.24-1.12-4.48-1.68-6.72c-1.12-5.04-2.8-11.76-2.8-14.56c0-2.8,1.12-7.84,2.24-10.08c2.24-5.6,3.92-8.4,7.84-12.32
	c1.68-1.12,3.36-2.24,5.04-3.36c5.04-3.36,10.64-6.72,14-14c1.68-2.8,2.8-6.16,3.36-8.96c2.24-7.84,1.68-16.24-1.12-22.96
	c-0.56-1.68-0.56-3.36-1.12-4.48c-0.56-2.24-3.36-3.36-5.6-2.8c-2.24,0.56-3.92,2.8-3.36,5.04c1.12,5.04-0.56,11.2-4.48,18.48
	c-1.12,1.68-2.24,2.8-3.92,4.48c-5.04,3.92-10.08,5.04-12.32,6.16c-29.12,8.96-36.96,33.04-36.96,33.04
	c-2.8,7.28-3.36,15.68-3.92,22.4v5.6v5.6c-0.56,8.4-2.24,20.16-10.08,29.12c-3.92-16.24-8.96-43.68-13.44-68.88
	c-3.36-19.6-6.72-36.96-8.4-45.36l0.01-1.12c0-2.24-1.68-4.48-3.92-4.48c-2.24-0.56-4.48,1.12-5.04,3.36
	c-1.68,7.28-5.04,25.76-8.96,47.6c-3.36,19.04-7.28,40.32-10.64,56.56c-5.04-10.08-11.76-17.92-20.16-24.08
	c-2.8-1.68-5.6-3.92-9.52-6.72c-1.68-1.12-3.92-2.24-5.6-3.92c-4.48-2.8-10.64-6.72-12.32-8.4c-2.24-1.68-4.48-6.16-5.6-8.96
	c-2.24-5.6-3.36-8.4-3.36-14.56c0-1.68,0.56-3.92,1.12-5.6c1.12-5.6,2.8-12.32,0-19.6c-1.12-3.36-2.24-6.16-3.92-8.96
	c-3.92-7.28-10.08-12.32-17.36-15.68c-1.12-1.12-2.8-1.68-4.48-2.24c-2.24-1.12-5.04,0-6.16,1.68c-2.79,2.8-2.23,5.6,0.01,6.72
	c4.48,2.8,7.28,8.4,9.52,16.24c0.56,1.68,0.56,3.92,0,6.16c-0.56,6.72-3.36,10.64-4.48,12.88c-14,26.88-2.8,49.28-2.8,49.28
	c3.36,7.28,8.4,13.44,13.44,18.48c1.12,1.12,2.24,2.8,3.92,3.92c1.12,1.68,2.8,2.8,3.92,4.48c3.92,3.92,14,16.8,14,31.36
	c-0.56,0-0.56,0.56-1.12,0.56c-14-8.4-38.64-24.64-60.48-39.2c-15.68-10.64-29.68-20.16-36.96-24.64l-1.12-1.12
	c-1.68-1.68-4.48-1.68-6.16-0.56c-1.68,1.68-2.24,3.92-1.12,6.16c3.92,6.16,14,21.84,26.32,39.76c11.2,16.8,23.52,35.28,32.48,49.28
	c-9.52-2.8-18.48-3.36-27.44-1.68c-3.36,0.56-6.72,1.12-11.2,2.24c-2.24,0.56-4.48,1.12-6.72,1.68c-5.04,1.12-11.76,2.8-14.56,2.8
	c-2.8,0-7.84-1.12-10.08-2.24c-5.6-2.24-8.4-3.92-12.32-7.84c-1.12-1.68-2.24-3.36-3.36-5.04c-3.36-5.04-6.72-10.64-14-14
	c-2.8-1.68-6.16-2.8-8.96-3.36c-7.84-1.12-15.68-1.12-22.97,1.67c-1.68,0.56-3.36,0.56-4.48,1.12c-2.24,0.56-3.36,3.36-2.8,5.6
	c0.56,2.24,2.8,3.92,5.04,3.36c5.04-1.12,11.2,0.56,18.48,4.48c1.68,1.12,2.8,2.24,4.48,3.92c3.92,5.04,5.04,10.08,6.16,12.32
	c8.96,29.12,33.04,36.96,33.04,36.96c7.28,2.8,15.68,3.36,22.4,3.92h5.6h5.6c6.72,0.56,15.12,1.68,22.4,6.16
	c-16.8,3.92-39.76,8.4-62.72,12.32c-19.6,3.36-36.96,6.72-45.36,8.4l-1.12,0c-2.24,0-4.48,1.68-4.48,3.92
	c-0.56,2.24,1.12,4.48,3.36,5.04c7.28,1.68,25.76,5.6,47.6,9.52c20.16,3.92,40.32,8.4,56.56,11.76c-9.52,5.04-17.36,11.2-22.96,19.6
	c-1.68,2.8-3.92,5.6-6.72,9.52c-1.12,1.68-2.24,3.92-3.92,5.6c-2.8,4.48-6.72,10.64-8.4,12.32c-1.68,2.24-6.16,4.48-8.96,5.6
	c-5.6,2.24-8.4,3.36-14.56,3.36c-1.68,0-3.92-0.56-5.6-1.12c-5.6-1.12-12.32-2.8-19.6,0c-3.36,1.12-6.16,2.24-8.96,3.92
	c-7.28,3.92-12.32,10.08-15.68,17.36c-1.12,1.12-1.68,2.8-2.24,4.48c-1.12,2.24,0,5.04,1.68,6.16c2.8,2.79,5.6,1.67,6.72-0.01
	c2.8-4.48,8.4-7.28,16.24-9.52c1.68-0.56,3.92-0.56,6.16,0c6.72,0.56,10.64,3.36,12.88,4.48c26.88,14,49.28,2.8,49.28,2.8
	c7.28-3.36,13.44-8.4,18.48-13.44c1.12-1.12,2.8-2.24,3.92-3.92c1.68-1.12,2.8-2.8,4.48-3.92c5.6-4.48,14-10.64,24.08-13.44
	c-9.52,14.56-23.52,35.84-36.4,54.88c-11.2,16.8-21.28,31.92-25.76,39.2l-1.12,1.12c-1.68,1.68-1.68,4.48-0.56,6.16
	c1.12,1.12,2.24,1.68,3.92,1.68c0.56,0,1.68,0,2.24-0.56c6.16-3.92,21.28-14,39.2-25.76c17.92-11.76,37.52-25.2,51.52-34.16
	c-3.36,10.08-3.92,20.16-2.24,29.68c0.56,3.36,1.12,6.72,2.24,11.2c0.56,2.24,1.12,4.48,1.68,6.72c1.12,5.04,2.8,11.76,2.8,14.56
	c0,2.8-1.12,7.84-2.24,10.08c-2.24,5.6-3.92,8.4-7.84,12.32c-1.68,1.12-3.36,2.24-5.04,3.36c-5.04,3.36-10.64,6.72-14,14
	c-1.68,2.8-2.8,6.16-3.36,8.96c-2.24,7.84-1.68,16.24,1.12,22.96c0.56,1.68,0.56,3.36,1.12,4.48c0.56,2.24,3.36,3.36,5.6,2.8
	c2.24-0.56,3.92-2.8,3.36-5.04c-1.12-5.04,0.56-11.2,4.48-18.48c1.12-1.68,2.24-2.8,3.92-4.48c5.04-3.92,10.08-5.04,12.32-6.16
	c29.12-8.96,36.96-33.04,36.96-33.04c2.8-7.28,3.36-15.68,3.92-22.4v-5.6v-5.6c0.56-8.4,2.8-19.6,10.08-28
	c3.92,16.8,8.4,48.16,12.88,71.12c3.92,21.84,7.28,40.88,8.96,47.6c0.56,2.24,2.24,3.36,4.48,3.36h0.56
	c2.24-0.56,3.92-2.24,3.92-4.48l-0.01-1.11c1.68-8.4,5.04-25.2,8.96-44.8c3.92-20.72,8.4-48.72,12.32-65.52
	c5.04,12.32,12.88,21.84,22.4,28.56c2.8,1.68,5.6,3.92,9.52,6.72c1.68,1.12,3.92,2.24,5.6,3.92c4.48,2.8,10.64,6.72,12.32,8.4
	c2.24,1.68,4.48,6.16,5.6,8.96c2.24,5.6,3.36,8.4,3.36,14.56c0,1.68-0.56,3.92-1.12,5.6c-1.12,5.6-2.8,12.32,0,19.6
	c1.12,3.36,2.24,6.16,3.92,8.96c3.92,7.28,10.08,12.32,17.36,15.68c1.12,1.12,2.8,1.68,4.48,2.24c2.24,1.12,5.04,0,6.16-1.68
	c1.12-2.24,0.56-4.48-1.12-6.16c-4.48-2.8-7.28-8.4-9.52-16.24c-0.56-1.68-0.56-3.92,0-6.16c0.56-6.72,3.36-10.64,4.48-12.88
	c14-26.88,2.8-49.28,2.8-49.28c-3.36-7.28-8.4-13.44-13.44-18.48c-1.12-1.12-2.24-2.8-3.92-3.92c-1.12-1.68-2.8-2.8-3.92-4.48
	c-5.04-6.16-12.32-15.68-14-27.44c14.56,8.96,36.4,24.08,56,37.52c16.24,11.2,30.8,21.28,38.08,25.76l1.12,1.12
	c1.12,1.12,2.24,1.12,3.36,1.12s2.24-0.56,2.8-1.12c1.68-1.68,2.24-3.92,1.12-6.16c-3.92-6.16-15.12-22.4-28-40.32
	c-12.32-17.92-26.32-37.52-35.84-51.52c10.64,3.92,21.84,5.04,31.92,3.36c3.36-0.56,6.72-1.12,11.2-2.24
	c2.24-0.56,4.48-1.12,6.72-1.68c5.04-1.12,11.76-2.8,14.56-2.8c2.8,0,7.84,1.12,10.08,2.24c5.6,2.24,8.4,3.92,12.32,7.84
	c1.12,1.68,2.24,3.36,3.36,5.04c3.36,5.04,6.72,10.64,14,14c2.8,1.68,6.16,2.8,8.96,3.36c7.84,2.24,16.24,1.68,22.96-1.12
	c1.68-0.56,3.36-0.56,4.48-1.12C517.89,363.9,519.57,361.1,519.01,358.85L519.01,358.85z M390.77,277.66
	c0.56-3.92,0.56-7.84,1.12-11.76h66.64C437.26,269.81,408.7,273.73,390.77,277.66L390.77,277.66z M258.61,144.38
	c15.12,0,29.12,2.8,42.56,7.28c43.68,16.8,74.48,59.36,74.48,108.64c0,63.84-52.08,116.48-116.48,116.48
	c-64.4,0-116.48-52.08-116.48-116.48c0-22.4,6.16-43.12,17.36-61.04c0.56-0.56,1.12-1.68,1.68-2.24
	c15.68-24.08,40.32-42,69.44-49.28C239.58,145.5,249.1,144.38,258.61,144.38L258.61,144.38z M456.29,256.94h-64.4
	c0-3.92-0.56-7.84-1.12-11.2C408.13,248.54,436.13,253.02,456.29,256.94L456.29,256.94z M466.38,171.81
	c-7.28,0-14.56,2.24-21.28,5.6c-10.08,5.04-15.68,15.68-18.48,20.16c-1.12,1.68-2.24,3.92-3.36,5.6c-2.24,3.92-4.48,6.72-6.16,9.52
	c-7.28,10.08-17.92,16.8-28.56,20.72c-1.12-3.92-1.68-7.28-3.36-11.2c11.2-2.8,22.4-10.08,30.8-23.52
	c1.68-2.8,7.84-12.88,9.52-15.12c4.48-5.04,14-9.52,16.8-10.08C450.7,171.26,458.54,170.7,466.38,171.81L466.38,171.81z
	 M404.77,183.02c1.68-1.12,2.8-2.8,4.48-3.92c1.12-1.12,2.8-2.24,3.92-3.36c4.48-4.48,11.2-11.76,24.08-13.44
	c8.96-1.12,16.8-1.68,24.64,0.56c-7.28-0.56-14,1.12-20.72,2.8c-2.8,0.56-14,3.92-20.72,12.32c-1.12,1.12-12.32,17.92-12.32,18.48
	c-3.92,7.28-12.88,14.56-25.2,17.36c-2.24-5.04-4.48-9.52-7.28-14.56C385.18,197.02,395.26,191.42,404.77,183.02L404.77,183.02z
	 M401.41,128.7c-12.88,19.04-26.88,40.32-36.4,55.44c-2.8-3.36-5.6-7.28-8.96-10.64l46.48-46.48
	C401.97,127.58,401.41,128.14,401.41,128.7L401.41,128.7z M396.38,119.74C396.38,119.74,396.93,119.74,396.38,119.74l-47.04,47.6
	c-3.36-3.36-7.28-6.16-11.2-8.96C352.7,149.42,375.66,133.74,396.38,119.74L396.38,119.74z M342.06,50.86
	c-5.6,5.6-8.96,11.76-11.76,19.04c-3.36,10.08,0,21.84,1.12,26.88c0.56,2.24,1.12,4.48,1.68,6.72c1.12,4.48,1.68,7.84,2.24,11.2
	c2.24,13.44-1.68,26.32-6.72,36.96c-3.36-2.24-6.72-3.92-10.08-5.6c7.28-10.64,10.64-24.08,6.72-40.88
	c-0.56-3.36-3.36-14.56-3.92-17.36c-0.56-6.72,3.36-16.8,5.04-19.04C329.74,62.06,335.34,55.9,342.06,50.86L342.06,50.86z
	 M306.22,102.38v-6.16v-5.04c0.56-6.16-0.56-15.68,7.28-26.32c5.6-7.28,11.2-12.88,17.92-16.8c-5.6,5.04-8.96,10.64-12.88,16.8
	c-1.68,2.8-7.28,12.32-6.16,23.52c0,1.68,3.92,21.84,3.92,21.84c2.24,8.96,1.12,21.28-7.28,32.48c-5.04-2.24-10.08-3.92-15.12-5.04
	C301.18,128.7,305.09,116.94,306.22,102.38L306.22,102.38z M278.22,134.3c-4.48-0.56-8.4-1.12-12.88-1.12V66.54
	C269.25,91.18,274.29,118.06,278.22,134.3L278.22,134.3z M255.81,64.3v68.32c-4.48,0-8.96,0.56-13.44,1.12
	C246.29,116.94,251.34,88.94,255.81,64.3L255.81,64.3z M170.13,52.54c0,7.84,2.24,15.12,5.6,21.84
	c5.04,10.08,15.68,15.68,20.16,18.48c1.68,1.12,3.92,2.24,5.6,3.36c3.92,2.24,6.72,4.48,9.52,6.16
	c11.76,8.4,17.92,20.72,21.84,32.48c-3.92,0.56-7.84,1.68-11.76,2.8c-2.24-12.88-9.52-24.64-24.64-34.16
	c-2.8-1.68-12.88-7.84-15.12-9.52c-5.04-4.48-9.52-14-10.08-16.8C169.57,69.34,169.02,60.94,170.13,52.54L170.13,52.54z
	 M181.34,114.7c-1.12-1.68-2.8-2.8-3.92-4.48c-1.12-1.12-2.24-2.8-3.36-3.92c-4.48-4.48-11.76-11.2-13.44-24.08
	c-1.12-8.96-1.68-16.8,0.56-24.64c-0.56,7.28,1.12,14,2.8,20.72c0.56,2.8,3.92,14,12.32,20.72c1.12,1.12,17.92,12.32,18.48,12.32
	c7.84,4.48,16.24,14.56,17.92,28.56c-5.04,1.68-10.08,3.92-14.56,6.16C195.89,135.98,190.29,125.34,181.34,114.7L181.34,114.7z
	 M179.09,157.82c-3.92,2.8-7.28,5.6-11.2,8.96l-45.92-45.92C142.13,134.29,164.54,148.86,179.09,157.82L179.09,157.82z
	 M115.81,128.14c-0.56-0.56-1.12-1.12-1.12-2.24l47.04,47.04c-3.36,3.36-6.16,6.72-8.96,10.64
	C142.7,169.02,128.7,147.74,115.81,128.14L115.81,128.14z M51.42,183.58c5.6,5.04,11.76,8.4,19.04,11.2
	c10.08,3.36,21.84,0,26.88-1.12c2.24-0.56,4.48-1.12,6.72-1.68c4.48-1.12,7.84-1.68,11.2-2.24c10.64-1.68,21.28,0,30.24,3.92
	c-2.24,3.36-3.92,6.72-5.6,10.08c-8.96-4.48-20.16-6.16-33.6-2.8c-3.36,0.56-14.56,3.36-17.36,3.92c-6.72,0.56-16.8-3.36-19.04-5.04
	C62.06,195.34,55.9,189.74,51.42,183.58L51.42,183.58z M102.38,219.42h-6.16h-5.04c-6.16-0.56-15.68,0.56-26.32-7.28
	c-7.28-5.6-12.88-11.2-16.8-17.92c5.04,5.6,10.64,8.96,16.8,12.88c2.8,1.68,12.32,7.28,23.52,6.16c1.68,0,21.84-3.92,21.84-3.92
	c7.28-2.24,16.24-1.68,25.76,3.36c-2.24,4.48-3.92,9.52-5.04,14.56C122.54,222.78,113.02,219.98,102.38,219.42L102.38,219.42z
	 M126.45,244.06c-0.56,3.92-1.12,7.84-1.12,12.32H65.97C88.38,251.9,110.78,247.42,126.45,244.06L126.45,244.06z M63.18,265.9
	c-0.56,0-1.68-0.56-2.24-0.56h64.4c0,4.48,0.56,9.52,1.12,14C109.66,275.42,86.13,270.38,63.18,265.9L63.18,265.9z M53.1,351.58
	c7.28,0,14.56-2.24,21.28-5.6c10.08-5.04,15.68-15.68,18.48-20.16c1.12-1.68,2.24-3.92,3.36-5.6c2.24-3.92,4.48-6.72,6.16-9.52
	c6.72-9.52,16.8-15.68,26.32-19.6c1.12,3.92,2.24,7.28,3.36,10.64c-10.64,3.36-20.72,10.08-29.12,22.96
	c-1.68,2.8-7.84,12.88-9.52,15.12c-4.48,5.04-14,9.52-16.8,10.08C68.77,352.7,60.93,352.7,53.1,351.58L53.1,351.58z M114.7,340.94
	c-1.68,1.12-2.8,2.8-4.48,3.92c-1.12,1.12-2.8,2.24-3.92,3.36c-4.48,4.48-11.2,11.76-24.08,13.44c-8.96,1.12-16.8,1.68-24.64-0.56
	c7.28,0.56,14-1.12,20.72-2.8c2.8-0.56,14-3.92,20.72-12.32c1.12-1.12,12.32-17.92,12.32-18.48c3.92-7.28,12.32-14,23.52-16.8
	c2.24,5.04,4.48,9.52,7.28,14.56C133.74,327.5,123.66,332.54,114.7,340.94L114.7,340.94z M116.38,394.14
	c12.88-19.04,26.88-40.32,36.4-54.88c2.8,3.36,5.6,6.72,8.96,10.08l-46.48,46.48C115.26,395.26,115.81,394.7,116.38,394.14
	L116.38,394.14z M120.86,403.1c0,0-0.56,0-0.56,0.56l47.6-47.6c3.36,3.36,7.28,6.16,11.2,8.96
	C165.1,373.42,142.14,389.1,120.86,403.1L120.86,403.1z M177.97,468.62c5.6-5.6,8.96-11.76,11.76-19.04
	c3.36-10.08,0-21.84-1.12-26.88c-0.56-2.24-1.12-4.48-1.68-6.72c-1.12-4.48-1.68-7.84-2.24-11.2c-2.24-11.76,0.56-23.52,5.04-33.6
	c3.36,1.68,6.72,3.92,10.08,5.04c-5.6,10.08-7.84,22.4-4.48,37.52c0.56,3.36,3.36,14.56,3.92,17.36c0.56,6.72-3.36,16.8-5.04,19.04
	C189.74,457.42,184.7,463.58,177.97,468.62L177.97,468.62z M213.81,417.1v6.16v5.04c-0.56,6.16,0.56,15.68-7.28,26.32
	c-5.6,7.28-11.2,12.88-17.92,16.8c5.6-5.04,8.96-10.64,12.88-16.8c1.68-2.8,7.28-12.32,6.16-23.52c0-1.68-3.92-21.84-3.92-21.84
	c-2.24-7.84-1.12-19.04,5.04-29.68c5.04,1.68,10.08,3.36,15.12,5.04C218.3,393.58,214.94,404.22,213.81,417.1L213.81,417.1z
	 M255.26,459.1c-4.48-24.08-9.52-53.76-12.88-70.56c4.48,0.56,8.4,0.56,12.88,1.12V459.1z M264.22,459.1v-70
	c4.48,0,8.96-0.56,13.44-1.12C273.74,405.9,268.7,436.13,264.22,459.1L264.22,459.1z M353.26,466.94c0-7.84-2.24-15.12-5.6-21.84
	c-5.04-10.08-15.68-15.68-20.16-18.48c-1.68-1.12-3.92-2.24-5.6-3.36c-3.92-2.24-6.72-4.48-9.52-6.16
	c-11.2-7.84-17.92-20.16-21.28-31.36c3.92-1.12,7.84-2.24,11.2-3.36c2.24,12.32,9.52,24.64,24.08,34.16
	c2.8,1.68,12.88,7.84,15.12,9.52c5.04,4.48,9.52,14,10.08,16.8C353.81,450.14,354.38,458.54,353.26,466.94L353.26,466.94z
	 M342.61,404.78c1.12,1.68,2.8,2.8,3.92,4.48c1.12,1.12,2.24,2.8,3.36,3.92c4.48,4.48,11.76,11.2,13.44,24.08
	c1.12,8.96,1.68,16.8-0.56,24.64c0.56-7.28-1.12-14-2.8-20.72c-0.56-2.8-3.92-14-12.32-20.72c-1.12-1.12-17.92-12.32-18.48-12.32
	c-7.84-4.48-16.24-14.56-17.92-28.56c5.04-2.24,9.52-4.48,14.56-7.28C327.5,382.94,333.1,394.13,342.61,404.78L342.61,404.78z
	 M339.26,363.34c3.36-2.8,6.72-5.6,10.08-8.4l45.92,45.92C375.66,386.86,353.81,372.3,339.26,363.34L339.26,363.34z M401.97,394.13
	l-45.92-45.92c2.8-2.8,5.6-6.16,7.84-8.96C373.42,353.81,388.54,375.1,401.97,394.13L401.97,394.13z M468.06,338.13
	c-5.6-5.04-11.76-8.4-19.04-11.2c-10.08-3.36-21.84,0-26.88,1.12c-2.24,0.56-4.48,1.12-6.72,1.68c-4.48,1.12-7.84,1.68-11.2,2.24
	c-11.76,1.68-22.4-0.56-32.48-4.48c2.24-3.36,3.92-6.16,5.6-9.52c9.52,5.04,21.28,7.28,35.84,3.92c3.36-0.56,14.56-3.36,17.36-3.92
	c6.72-0.56,16.8,3.36,19.04,5.04C457.42,326.38,463.58,331.97,468.06,338.13L468.06,338.13z M455.18,315.74
	c-2.8-1.68-12.32-7.28-23.52-6.16c-1.68,0-21.84,3.92-21.84,3.92c-7.84,2.24-17.92,1.68-28-3.92c2.24-5.04,3.92-10.08,5.04-15.12
	c7.84,4.48,17.92,7.28,29.68,8.4h6.16h5.04c6.16,0.56,15.68-0.56,26.32,7.28c7.28,5.6,12.88,11.2,16.8,17.92
	C466.93,323.02,461.34,319.1,455.18,315.74L455.18,315.74z M281.58,339.26c-5.6,10.64-17.36,11.2-31.92,8.4
	c-1.12-0.56-2.24-0.56-2.8-1.12c-2.8-1.68-4.48-4.48-5.04-8.96c1.12,0.56,2.8,1.12,3.92,1.12c1.12,0.56,2.8,0.56,3.92,1.12
	c10.64,1.68,18.48,3.36,30.8-2.8C281.58,337.58,281.58,338.7,281.58,339.26L281.58,339.26z M289.42,317.98c1.68,0,4.48,0,6.16-1.12
	c1.12-0.56,7.28-5.04,8.4-5.04c1.12,0,3.36,6.16,5.04,7.28l-1.12,0.56c-0.56,0.56-4.48-3.36-5.6-2.24c0,0-1.68,0.56-2.8,2.24
	c-2.24,1.68-3.92,4.48-6.72,4.48c-11.76,1.12-20.16-5.6-29.12,3.92c-2.8,1.12-4.48,1.12-7.28,0c-0.56,0-1.68-0.56-2.24-0.56
	c-2.24-2.24-4.48-2.8-7.28-2.24c-1.12,0-1.68,0.56-2.8,0.56c-7.28,2.8-19.04-0.56-24.64-7.28c-1.68-1.68-7.28,4.48-7.84,1.68
	c1.12,0.56,7.84-10.08,8.4-10.08c0,0,1.12,3.92,2.24,4.48c7.84,3.36,15.68,5.04,24.08,1.12c1.12,0,2.8-1.12,3.92-1.12
	c3.36,0,5.6,1.12,8.96,2.24c0.56,0,1.68,0.56,2.24,0.56c0.56,0,1.68-0.56,2.24-0.56c3.36-0.56,5.04-3.36,8.4-3.36h3.36
	c2.24,0.56,7.28,2.24,8.96,2.8C286.62,317.98,288.3,317.98,289.42,317.98L289.42,317.98z M205.98,213.26
	c-13.44,0.56-22.96,9.52-33.6,16.24c1.12-18.48,22.4-26.32,38.64-25.2c1.68,0,3.92,0,5.6,0.56s3.92,0.56,5.6,1.12
	c1.68,0.56,2.8,0.56,4.48,1.12c2.8,1.12,5.6,2.24,7.84,3.92c1.12,0.56,1.68,1.12,2.8,2.24c2.24,2.24,3.92,5.04,3.36,8.96
	c-1.12-0.56-1.68-1.12-2.8-1.12c-1.12-0.56-1.68-0.56-2.8-1.12C221.66,212.13,207.1,213.26,205.98,213.26L205.98,213.26z
	 M243.5,289.97c2.8-1.12,7.28,5.04,12.88,5.04c1.12,0,10.64,1.68,17.36-10.08c0.56,0.56,0.56,1.12,1.12,2.24v0.56
	c1.12,3.92,1.12,8.96-1.68,11.2c-0.56,0.56-1.12,1.12-2.24,1.68c-2.8,1.68-5.6,2.8-8.96,3.36h-2.24c-2.24,0.56-5.04,0-7.84-1.12
	c-1.12-0.56-1.68-0.56-2.24-1.12C246.3,299.5,238.46,292.22,243.5,289.97L243.5,289.97z M269.82,265.9c0-1.68-0.56-8.96,0-14
	c0-1.12,0.56-8.96,1.12-15.68c0-1.68,0.56-3.36,0.56-5.04c2.8-15.68,17.36-27.44,33.04-27.44h3.92h3.92c1.12,0,2.8,0.56,4.48,0.56
	s2.8,0.56,4.48,0.56c7.28,2.8,20.16,2.8,22.96,12.88c-8.96-3.92-18.48-5.6-28-6.72c-7.84-1.12-15.68,0.56-17.36,1.12
	c-19.04,3.36-22.4,34.72-22.96,38.08c0,1.12-0.56,2.8-0.56,3.92c-0.56,3.92-1.12,7.84-1.12,11.76c0,1.12-1.12,2.24-2.24,1.68
	C270.94,268.14,269.82,267.02,269.82,265.9L269.82,265.9z M338.7,235.66c-5.04-2.8-10.08-7.28-18.48-7.84h-1.68
	c-3.36,0-6.72,0.56-10.08,1.68c-1.68,0.56-3.92,1.12-11.2,4.48c-1.12,0.56-4.48,1.68-5.6,4.48c0,0-0.56,2.24,1.68,3.36
	c1.12,0.56,3.36-0.56,5.04-1.12c3.92-1.68,2.8-1.12,6.16-2.24c0.56,0,5.6-2.8,7.28-1.68c-1.68,0.56-6.72,3.92-7.28,5.04
	c-0.56,3.36,1.12,5.6,3.92,7.84c2.8,2.24,20.72,4.48,23.52-10.08c7.84,1.68,10.08,1.68,8.96-2.24
	C340.38,236.78,338.7,236.22,338.7,235.66L338.7,235.66z M324.7,240.7c-7.84,1.68-8.96-1.12-8.4-4.48c2.24-2.8,8.4-3.36,10.64,0
	C330.3,238.46,328.06,240.14,324.7,240.7L324.7,240.7z M227.82,233.98c-3.92-2.8-8.4-5.04-13.44-5.6c-1.12,0-2.24-0.56-3.92-0.56
	h-3.36c-7.84,0.56-15.68,3.92-19.04,7.28c-0.56,0.56-3.92,2.8-2.24,5.04c1.68,2.24,6.72-0.56,11.2-2.24c0.56,0,1.12-0.56,1.12-0.56
	c13.44-4.48,0,2.8,0.56,2.8v1.12c0,1.68,3.92,11.2,19.04,9.52c6.16-0.56,6.16-3.36,8.96-7.84c0.56-0.56,1.68-1.12,2.24-1.68
	c0.56,0,1.12-0.56,1.68-0.56c1.12-0.56,3.36,0,3.36-1.68C233.98,239.02,229.5,234.54,227.82,233.98L227.82,233.98z M223.9,239.58
	c0,2.24-2.8,2.24-6.16,2.24c-2.8,0.56-8.4-1.68-8.4-3.92C209.9,231.18,223.34,233.98,223.9,239.58L223.9,239.58z"/>
</svg>